<svg width="51" height="51" viewBox="0 0 51 51" fill="none" xmlns="http://www.w3.org/2000/svg">
<circle cx="25" cy="25.6" r="25" stroke="white" stroke-width="0.8"/>
<path d="M36.8421 31.4158V36.0684C36.8424 36.7596 36.3079 37.3332 35.6184 37.3816C35.0434 37.4211 34.5737 37.4421 34.2105 37.4421C22.5829 37.4421 13.1579 28.0171 13.1579 16.3895C13.1579 16.0263 13.1776 15.5566 13.2184 14.9816C13.2668 14.2921 13.8404 13.7576 14.5316 13.7579H19.1842C19.5223 13.7576 19.8057 14.0136 19.8395 14.35C19.8697 14.6526 19.8974 14.8934 19.9237 15.0763C20.1852 16.9012 20.7211 18.6761 21.5132 20.3408C21.6382 20.604 21.5566 20.9184 21.3197 21.0869L18.4803 23.1158C20.2164 27.1611 23.4402 30.3849 27.4855 32.1211L29.5118 29.2869C29.6828 29.0479 30.0001 28.9654 30.2658 29.0908C31.9303 29.8814 33.7047 30.416 35.5289 30.6763C35.7118 30.7026 35.9526 30.7316 36.2526 30.7605C36.5885 30.795 36.8438 31.0781 36.8434 31.4158H36.8421Z" fill="white"/>
</svg>
