<?xml version="1.0" standalone="no"?>
<!DOCTYPE svg PUBLIC "-//W3C//DTD SVG 20010904//EN"
 "http://www.w3.org/TR/2001/REC-SVG-20010904/DTD/svg10.dtd">
<svg version="1.0" xmlns="http://www.w3.org/2000/svg"
 width="650.000000pt" height="500.000000pt" viewBox="0 0 650.000000 500.000000"
 preserveAspectRatio="xMidYMid meet">
<metadata>
Created by potrace 1.16, written by Peter Selinger 2001-2019
</metadata>
<g transform="translate(0.000000,500.000000) scale(0.100000,-0.100000)"
fill="#000000" stroke="none">
<path d="M4740 4992 c0 -5 12 -15 28 -23 15 -8 63 -37 107 -65 44 -29 103 -64
130 -79 28 -16 52 -31 55 -34 8 -9 99 -51 113 -51 6 -1 30 -9 52 -20 22 -11
47 -19 56 -20 8 0 30 -11 49 -25 19 -14 39 -25 45 -25 29 0 141 -89 264 -209
73 -72 140 -131 147 -131 8 0 17 -6 20 -14 3 -7 43 -32 90 -56 46 -23 84 -46
84 -50 0 -28 -254 -43 -605 -36 -352 7 -466 13 -479 27 -6 5 -36 9 -68 9 -31
0 -77 6 -100 14 -24 8 -70 17 -103 20 -119 13 -330 74 -377 110 -15 12 -41 31
-57 44 -29 22 -91 105 -91 120 0 15 -56 138 -84 187 -35 59 -130 154 -204 203
-92 61 -201 53 -158 -12 17 -27 104 -123 153 -170 34 -33 103 -142 103 -162 0
-7 -17 -18 -37 -25 -58 -19 -201 -5 -323 31 -58 17 -121 33 -140 35 -19 2 -57
8 -85 15 -65 15 -325 15 -462 0 -109 -12 -292 -10 -348 4 -67 16 -102 52 -203
202 -23 34 -58 71 -78 83 -37 22 -125 33 -141 18 -4 -5 10 -26 33 -47 55 -51
84 -103 84 -151 0 -82 -56 -98 -330 -99 -113 -1 -236 -6 -275 -11 -106 -16
-210 -23 -312 -22 -125 0 -144 3 -170 19 -12 8 -27 14 -34 14 -6 0 -23 8 -37
18 -47 31 -97 44 -125 31 -67 -30 -60 -131 15 -218 42 -49 99 -91 123 -91 9 0
33 -9 55 -20 22 -11 53 -20 69 -20 16 0 33 -4 36 -10 7 -12 417 -11 555 1 52
5 178 16 280 25 211 19 790 30 790 15 0 -16 -67 -66 -126 -95 -57 -28 -62 -38
-40 -89 34 -82 125 -88 275 -20 31 14 67 33 81 43 14 10 70 41 125 70 92 48
103 51 135 41 19 -6 85 -18 145 -27 151 -22 336 -61 420 -89 39 -12 91 -29
118 -36 26 -7 47 -17 47 -22 0 -9 -14 -27 -150 -192 -103 -125 -251 -310 -304
-379 -22 -28 -69 -88 -105 -133 -36 -45 -91 -116 -121 -157 -30 -42 -58 -76
-62 -76 -5 0 -8 17 -8 38 0 56 -47 141 -95 174 -51 35 -141 58 -225 58 -134 0
-170 -27 -170 -129 0 -33 -8 -82 -17 -108 -40 -111 -12 -256 53 -278 41 -14
44 -21 44 -102 0 -72 -1 -74 -40 -113 -22 -22 -40 -47 -40 -55 0 -9 -11 -42
-25 -75 -14 -33 -25 -74 -25 -91 0 -40 35 -103 67 -120 23 -12 24 -16 21 -108
l-3 -96 -53 0 c-44 1 -57 5 -78 28 -22 24 -31 27 -97 26 -39 0 -96 6 -126 12
-54 12 -54 12 -77 -16 l-23 -29 -84 12 c-45 7 -110 12 -143 12 -97 0 -208 -51
-250 -115 -8 -13 -59 -50 -112 -82 -53 -32 -99 -60 -102 -63 -3 -3 -43 -28
-90 -54 -47 -27 -110 -66 -141 -87 -65 -45 -185 -87 -278 -99 -76 -10 -182
-39 -228 -63 -21 -11 -42 -15 -63 -10 -22 4 -35 2 -40 -8 -14 -22 7 -45 62
-68 29 -12 61 -26 71 -32 12 -6 24 -6 37 1 29 15 55 12 81 -11 l24 -21 -35
-28 c-20 -17 -50 -30 -70 -32 -36 -3 -53 -29 -32 -50 19 -19 85 -27 140 -16
41 9 70 8 118 -1 57 -12 67 -11 101 5 34 17 39 25 48 71 8 42 17 57 45 78 57
43 122 73 196 90 66 15 177 72 232 119 28 25 98 124 112 160 9 25 28 36 127
71 52 19 53 19 90 -2 21 -11 59 -26 86 -34 52 -15 53 -18 32 -78 -24 -70 -48
-259 -43 -352 4 -76 8 -92 31 -122 23 -31 34 -36 75 -39 43 -3 47 -5 50 -30 5
-44 48 -78 98 -78 42 0 43 -1 68 -55 30 -67 109 -148 160 -165 32 -10 40 -10
57 6 10 9 19 30 19 45 0 42 10 59 36 59 26 0 38 -18 48 -72 13 -74 125 -119
171 -68 13 14 31 20 61 20 71 0 94 14 94 55 0 56 -19 81 -159 213 -113 107
-130 127 -125 147 8 32 -22 108 -52 134 -13 12 -43 34 -66 51 l-41 30 61 0 60
0 111 -157 c60 -87 123 -176 139 -198 16 -22 50 -51 75 -64 39 -20 56 -23 129
-20 82 4 91 7 153 53 8 6 24 0 47 -17 46 -35 111 -36 193 -2 44 18 78 25 131
25 80 0 123 21 159 76 18 29 27 32 110 45 l90 14 3 60 c3 72 -16 132 -50 158
-25 18 -29 19 -154 2 -151 -21 -354 -16 -449 10 -69 18 -154 55 -175 76 -8 8
-38 31 -66 52 -66 47 -173 172 -230 267 -41 69 -44 79 -44 145 0 76 9 145 19
145 3 0 14 -12 25 -28 57 -83 114 -91 146 -19 24 52 27 199 6 297 -8 36 -12
67 -11 68 2 2 30 -30 62 -71 97 -123 167 -166 276 -167 41 0 72 -7 107 -25
152 -77 333 -75 500 7 46 23 170 123 170 138 0 4 -19 11 -43 14 -67 10 -141
49 -165 87 -11 19 -34 42 -49 51 -43 25 -175 58 -234 58 -50 0 -53 2 -115 65
-35 35 -83 93 -107 129 -24 36 -60 79 -81 95 -44 35 -130 56 -193 47 -57 -7
-63 8 -27 65 72 115 444 539 757 862 37 38 67 74 67 78 0 5 9 9 20 9 18 0 36
-6 105 -36 17 -7 64 -22 106 -33 41 -11 88 -25 103 -31 15 -5 38 -10 51 -10
13 0 43 -15 67 -32 61 -46 92 -62 178 -94 l75 -28 287 -1 c216 0 290 -3 299
-12 7 -7 21 -13 30 -13 31 0 137 -69 199 -129 60 -58 150 -168 150 -182 0 -4
6 -14 13 -21 15 -18 31 -43 58 -93 12 -22 27 -47 33 -55 7 -8 27 -48 46 -89
l33 -74 -2 -286 c-1 -157 -4 -302 -7 -321 -17 -137 -27 -298 -34 -580 -9 -360
-7 -350 -88 -523 -38 -81 -54 -138 -91 -327 -10 -52 -29 -116 -41 -143 -24
-51 -111 -137 -139 -137 -9 0 -21 -4 -27 -9 -5 -4 -31 -14 -59 -21 -158 -42
-235 -97 -333 -235 -34 -48 -62 -90 -62 -94 0 -27 -185 -161 -222 -161 -36 0
-151 -79 -244 -167 -53 -51 -110 -98 -125 -105 -24 -11 -26 -14 -11 -20 9 -3
450 -7 980 -7 l962 -1 0 2500 0 2500 -320 0 c-313 0 -320 0 -320 -20 0 -11 4
-20 9 -20 18 0 99 -115 115 -163 19 -56 21 -145 4 -182 -6 -14 -22 -28 -35
-31 -32 -9 -103 5 -133 24 -14 10 -41 26 -59 37 -37 22 -67 47 -220 185 -58
52 -118 105 -133 117 -16 11 -28 28 -28 37 0 14 -33 16 -320 16 -176 0 -320
-4 -320 -8z m-604 -898 c13 -3 24 -10 24 -14 0 -4 -46 -57 -103 -116 -57 -60
-152 -163 -212 -229 -61 -66 -131 -142 -156 -170 -139 -150 -329 -383 -375
-461 -17 -27 -30 -9 -14 20 16 31 188 258 310 411 359 448 469 577 487 571 8
-3 26 -9 39 -12z"/>
</g>
</svg>
